<?xml version="1.0" encoding="utf-8"?>
<!-- Generator: Adobe Illustrator 16.0.0, SVG Export Plug-In . SVG Version: 6.00 Build 0)  -->
<!DOCTYPE svg PUBLIC "-//W3C//DTD SVG 1.1//EN" "http://www.w3.org/Graphics/SVG/1.1/DTD/svg11.dtd">
<svg version="1.1" id="Layer_1" xmlns="http://www.w3.org/2000/svg" xmlns:xlink="http://www.w3.org/1999/xlink" x="0px" y="0px"
	 width="306px" height="396px" viewBox="0 0 306 396" enable-background="new 0 0 306 396" xml:space="preserve">
<path fill="none" stroke="#000000" stroke-miterlimit="10" d="M70.383,55.29c-5.463,3.692-4.65,14.238-6.985,19.567
	c-1.835,4.19-5.222,7.241-7.021,11.909c-2.293,5.951-4.022,12.127-3.751,18.523"/>
<path fill="none" stroke="#000000" stroke-miterlimit="10" d="M35.804,52.486c-0.44,4.088,2.602,8.396,3.879,12.13
	c1.787,5.226,1.521,10.156,2.642,15.252c0.98,4.455,5.619,7.079,7.063,10.912c0.795,2.107,1.56,5.304,2.21,7.49
	c0.587,1.973,0.851,4.896,0.561,7.02"/>
<path fill="none" stroke="#000000" stroke-miterlimit="10" d="M26.925,106.691c0-7.715,0-19.497,0-28.244
	c0-7.264-1.338-16.047-0.478-23.165c0.852-7.055,3.961-3.375,7.955-5.133"/>
<path fill="none" stroke="#000000" stroke-miterlimit="10" d="M75.056,54.355c2.333,5.016-1.056,14.423-1.778,19.769
	c-0.959,7.108-0.85,14.271-1.831,21.352c-0.594,4.283-0.7,8.469-1.532,12.618"/>
<path fill="none" stroke="#000000" stroke-miterlimit="10" d="M91.411,79.122c3.539,7.977-3.577,15.94,3.282,23.726
	c3.334,3.785,7.085,5.741,11.694,1.542c6.796-6.192,6.94-20.848,6.987-28.071"/>
<path fill="none" stroke="#000000" stroke-miterlimit="10" d="M139.542,58.093c0,13.339,0.012,26.292-2.839,39.352
	c-0.304,1.394-1.387,7.607-1.367,6.443"/>
<path fill="none" stroke="#000000" stroke-miterlimit="10" d="M161.505,64.636c0,13.707,0,27.414,0,41.121"/>
<path fill="none" stroke="#000000" stroke-miterlimit="10" d="M151.691,83.327c10.303,0.479,21.389-0.978,31.761-1.395
	c5.932-0.238,9.684-3.5,14.905-4.611c-0.583,0.999-1.268,0.593-2.273,0.866"/>
<path fill="none" stroke="#000000" stroke-miterlimit="10" d="M217.112,76.785c0.378,4.974,1.292,16.65-1.402,21.028"/>
<path fill="none" stroke="#000000" stroke-miterlimit="10" d="M217.112,59.495c-0.504,0-6.732-0.792-7.955,0.071
	c-2.524,1.782-1.438,7.431-1.345,10.117c9.293,4.894,15.792-8.728,6.028-10.655"/>
<path fill="none" stroke="#000000" stroke-miterlimit="10" d="M54.495,121.178c-4.875,7.434-1.009,20.939-0.913,28.781
	c0.094,7.63,1.19,16.487-0.774,23.915c-1.38,5.216-4.901,9.164-7.222,13.876c0.643-0.35,1.12-0.89,1.433-1.619"/>
<path fill="none" stroke="#000000" stroke-miterlimit="10" d="M26.925,124.449c8.354,2.844,22.212,0.467,31.39,0.467
	c5.894,0,10.688-0.137,15.909-1.426c4.126-1.019,8.076-3.566,12.047-4.182"/>
<path fill="none" stroke="#000000" stroke-miterlimit="10" d="M77.393,169.309c4.308-0.319,26.069-10.943,14.006-16.389
	c-4.452-2.01-16.644,0.25-18.792,4.872c-1.183,2.544-1.282,9.023-1.391,11.983c-0.136,3.721,0.944,5.504,4.299,7.956
	c4.557,3.331,9.699,2.951,15.105,2.792c2.178-0.064,12.052-1.559,11.072-2.335"/>
<path fill="none" stroke="#000000" stroke-miterlimit="10" d="M130.196,158.093c-0.63-5.104-14.321-1.824-16.822,1.873
	c-1.351,1.996-3.225,8.551-1.469,10.639c2.272,2.703,9.251,0.709,12.216,0.573c4.054-0.186,13.867,0.946,13.125,7
	c-0.35,2.857-8.167,6.587-10.849,7.041c-4.424,0.749-8.216-2.098-12.557-1.892"/>
<path fill="none" stroke="#000000" stroke-miterlimit="10" d="M162.439,125.383c1.596,4.09,0.467,10.517,0.467,14.816
	c0,11.832,0.002,23.664,0,35.496c-0.001,5.308-2.203,10.122-1.869,15.108"/>
<path fill="none" stroke="#000000" stroke-miterlimit="10" d="M152.626,150.617c4.39,2.908,18.578-1.187,24.088-1.538
	c2.712-0.172,7.62-0.687,9.09,0.136"/>
</svg>
